<svg xmlns="http://www.w3.org/2000/svg" width="29.385" height="23.866" viewBox="0 0 29.385 23.866">
  <path id="Icon_awesome-twitter" data-name="Icon awesome-twitter" d="M26.365,9.329c.019.261.019.522.019.783,0,7.962-6.06,17.135-17.135,17.135A17.019,17.019,0,0,1,0,24.543a12.458,12.458,0,0,0,1.454.075,12.061,12.061,0,0,0,7.477-2.573A6.033,6.033,0,0,1,3.3,17.868a7.6,7.6,0,0,0,1.137.093,6.37,6.37,0,0,0,1.585-.205,6.023,6.023,0,0,1-4.829-5.911v-.075a6.065,6.065,0,0,0,2.722.764A6.031,6.031,0,0,1,2.051,4.481a17.119,17.119,0,0,0,12.418,6.3A6.8,6.8,0,0,1,14.32,9.4,6.028,6.028,0,0,1,24.743,5.283a11.857,11.857,0,0,0,3.822-1.454,6.006,6.006,0,0,1-2.648,3.319,12.073,12.073,0,0,0,3.468-.932,12.946,12.946,0,0,1-3.02,3.114Z" transform="translate(0 -3.381)" fill="#a1a1a3"/>
</svg>
