<svg xmlns="http://www.w3.org/2000/svg" width="29.933" height="29.933" viewBox="0 0 29.933 29.933">
  <path id="Icon_simple-whatsapp" data-name="Icon simple-whatsapp" d="M21.824,17.937c-.375-.187-2.2-1.081-2.544-1.2s-.59-.187-.839.187-.962,1.2-1.177,1.449-.435.262-.806.094a10.122,10.122,0,0,1-3-1.852,11.315,11.315,0,0,1-2.07-2.582c-.217-.374-.024-.58.162-.767.17-.168.375-.43.562-.652a3.162,3.162,0,0,0,.37-.619.686.686,0,0,0-.031-.654c-.094-.187-.838-2.02-1.15-2.751s-.607-.636-.838-.636c-.215-.019-.463-.019-.712-.019a1.406,1.406,0,0,0-.994.448,4.164,4.164,0,0,0-1.3,3.087A7.3,7.3,0,0,0,8.976,15.3a16.63,16.63,0,0,0,6.361,5.594c.891.374,1.584.6,2.125.784a5.16,5.16,0,0,0,2.345.151,3.838,3.838,0,0,0,2.514-1.779,3.087,3.087,0,0,0,.224-1.777c-.092-.168-.337-.262-.711-.43m-6.792,9.283h-.02a12.477,12.477,0,0,1-6.3-1.721l-.449-.267L3.592,26.355l1.253-4.546-.3-.468A12.37,12.37,0,0,1,23.813,6.081,12.208,12.208,0,0,1,27.441,14.8,12.385,12.385,0,0,1,15.05,27.128M25.593,4.3A15.144,15.144,0,0,0,15.023,0,14.829,14.829,0,0,0,2.115,22.248L0,29.933l7.9-2.06a15.044,15.044,0,0,0,7.122,1.8h.007a14.892,14.892,0,0,0,14.9-14.837A14.71,14.71,0,0,0,25.574,4.35" fill="#a1a1a3"/>
</svg>
